<svg width="385" height="329" viewBox="0 0 385 329" fill="none" xmlns="http://www.w3.org/2000/svg">
<g clip-path="url(#clip0_134_998)">
<path d="M283.311 328.487H84.6265C79.8492 328.487 76.0103 324.643 76.0103 319.859V34.5147C76.0103 29.7305 79.8492 25.886 84.6265 25.886H283.311C288.089 25.886 291.928 29.7305 291.928 34.5147V319.859C291.928 324.643 288.089 328.487 283.311 328.487Z" fill="#B38367"/>
<path d="M280.155 321.226H93.5839C92.1336 321.226 90.854 320.03 90.854 318.492V50.9177C90.854 49.4653 92.0483 48.1839 93.5839 48.1839H280.155C281.605 48.1839 282.885 49.3799 282.885 50.9177V318.577C282.885 320.03 281.69 321.226 280.155 321.226Z" fill="#C7C7C7"/>
<path d="M277.255 315.843H90.6835C89.2333 315.843 87.9536 314.647 87.9536 313.11V45.45C87.9536 43.9977 89.1479 42.7162 90.6835 42.7162H277.255C278.705 42.7162 279.984 43.9122 279.984 45.45V313.11C279.899 314.562 278.705 315.843 277.255 315.843Z" fill="#E8E8E8"/>
<path d="M282.203 311.657L95.7168 317.296C94.2666 317.381 92.9869 316.185 92.9869 314.647L84.7973 47.1587C84.712 45.7063 85.9063 44.4248 87.4419 44.4248L273.928 38.7863C275.378 38.7009 276.657 39.8969 276.657 41.4347L284.762 309.009C284.847 310.376 283.653 311.572 282.203 311.657Z" fill="white"/>
<path opacity="0.4" d="M146.305 100.81H117.812V129.345H146.305V100.81Z" stroke="#133A50" stroke-width="2" stroke-miterlimit="10"/>
<path d="M121.565 109.439L130.693 123.364L155.859 96.8803L131.29 113.54L121.565 109.439Z" fill="#5415A4"/>
<path d="M164.817 100.81H247.225" stroke="#5415A4" stroke-width="2" stroke-miterlimit="10"/>
<path d="M164.817 110.122H247.225" stroke="#5415A4" stroke-width="2" stroke-miterlimit="10"/>
<path d="M164.817 119.52H247.225" stroke="#5415A4" stroke-width="2" stroke-miterlimit="10"/>
<path d="M164.817 128.832H210.543" stroke="#5415A4" stroke-width="2" stroke-miterlimit="10"/>
<path opacity="0.4" d="M146.305 153.778H117.812V182.313H146.305V153.778Z" stroke="#133A50" stroke-width="2" stroke-miterlimit="10"/>
<path d="M121.565 162.407L130.693 176.332L155.859 149.848L131.29 166.508L121.565 162.407Z" fill="#5415A4"/>
<path d="M164.817 153.778H247.225" stroke="#5415A4" stroke-width="2" stroke-miterlimit="10"/>
<path d="M164.817 163.09H247.225" stroke="#5415A4" stroke-width="2" stroke-miterlimit="10"/>
<path d="M164.817 172.402H247.225" stroke="#5415A4" stroke-width="2" stroke-miterlimit="10"/>
<path d="M164.817 181.8H195.187" stroke="#5415A4" stroke-width="2" stroke-miterlimit="10"/>
<path opacity="0.4" d="M146.305 206.746H117.812V235.281H146.305V206.746Z" stroke="#133A50" stroke-width="2" stroke-miterlimit="10"/>
<path d="M121.565 215.375L130.693 229.3L155.859 202.816L131.29 219.39L121.565 215.375Z" fill="#5415A4"/>
<path d="M164.817 206.746H247.225" stroke="#5415A4" stroke-width="2" stroke-miterlimit="10"/>
<path d="M164.817 216.058H247.225" stroke="#5415A4" stroke-width="2" stroke-miterlimit="10"/>
<path d="M164.817 225.371H247.225" stroke="#5415A4" stroke-width="2" stroke-miterlimit="10"/>
<path d="M164.817 234.768H210.884" stroke="#5415A4" stroke-width="2" stroke-miterlimit="10"/>
<path opacity="0.4" d="M146.305 259.714H117.812V288.249H146.305V259.714Z" stroke="#133A50" stroke-width="2" stroke-miterlimit="10"/>
<path d="M121.565 268.343L130.693 282.268L155.859 255.784L131.29 272.358L121.565 268.343Z" fill="#5415A4"/>
<path d="M164.817 259.714H247.225" stroke="#5415A4" stroke-width="2" stroke-miterlimit="10"/>
<path d="M164.817 269.026H247.225" stroke="#5415A4" stroke-width="2" stroke-miterlimit="10"/>
<path d="M164.817 278.339H247.225" stroke="#5415A4" stroke-width="2" stroke-miterlimit="10"/>
<path d="M164.817 287.736H195.187" stroke="#5415A4" stroke-width="2" stroke-miterlimit="10"/>
<path d="M235.538 25.886L239.292 46.5606C239.804 49.4653 237.586 52.0283 234.685 52.0283H148.438C145.537 52.0283 143.319 49.3799 143.831 46.5606L147.585 25.886H235.538Z" fill="#C7C7C7"/>
<path d="M231.955 52.0283H145.708C142.807 52.0283 140.589 49.3799 141.101 46.5606L146.305 18.0262C146.732 15.805 148.608 14.1818 150.912 14.1818H226.751C228.969 14.1818 230.932 15.805 231.358 18.0262L236.562 46.5606C237.074 49.3799 234.856 52.0283 231.955 52.0283Z" fill="#E8E8E8"/>
<path opacity="0.21" d="M232.808 26.0569H144.855L141.101 46.5606C140.589 49.4653 142.807 52.0283 145.708 52.0283H231.955C234.856 52.0283 237.074 49.3799 236.562 46.5606L232.808 26.0569Z" fill="#C7C7C7"/>
<path d="M247.055 55.2747H136.068C133.765 55.2747 131.973 53.3952 131.973 51.174V37.1631C131.973 34.8564 133.85 33.0623 136.068 33.0623H247.055C249.358 33.0623 251.15 34.9418 251.15 37.1631V51.174C251.15 53.4806 249.358 55.2747 247.055 55.2747Z" fill="#C7C7C7"/>
<path d="M244.325 52.0283H133.338C131.035 52.0283 129.243 50.1488 129.243 47.9275V34.0021C129.243 31.6954 131.12 29.9013 133.338 29.9013H244.325C246.628 29.9013 248.42 31.7808 248.42 34.0021V48.013C248.42 50.2342 246.628 52.0283 244.325 52.0283Z" fill="#E8E8E8"/>
<path d="M204.998 22.5541V13.4129C204.998 5.98026 199.026 0 191.604 0C184.182 0 178.21 5.98026 178.21 13.4129V22.5541H204.998ZM191.604 7.00545C193.566 7.00545 195.187 8.62867 195.187 10.5936C195.187 12.5586 193.566 14.1818 191.604 14.1818C189.642 14.1818 188.021 12.5586 188.021 10.5936C188.021 8.54323 189.642 7.00545 191.604 7.00545Z" fill="#E8E8E8"/>
<path d="M233.235 66.7227H146.305V80.9899H233.235V66.7227Z" fill="#CFDEEE"/>
<path d="M327.673 293.887C325.625 293.289 309.587 253.221 295.34 235.708C290.819 230.155 283.141 222.466 281.094 215.375C278.193 204.952 295.852 215.033 298.241 216.827C304.81 221.868 311.208 227.763 318.033 232.889C323.066 236.733 327.673 241.09 329.549 247.412C330.658 251.257 330.146 254.845 330.317 258.775C330.488 263.559 332.365 267.745 334.241 272.017C337.142 279.022 327.673 293.887 327.673 293.887Z" fill="url(#paint0_linear_134_998)"/>
<path d="M294.743 226.994C311.549 247.07 326.649 266.293 327.672 293.887" stroke="white" stroke-miterlimit="10"/>
<path d="M325.625 296.621C322.725 266.976 311.549 250.06 296.876 242.542C282.288 235.024 257.975 239.467 277.767 250.488C293.634 259.373 287.833 267.232 297.217 273.725C303.274 277.997 308.563 275.263 310.867 286.198C312.061 291.837 325.625 296.621 325.625 296.621Z" fill="url(#paint1_linear_134_998)"/>
<path d="M287.918 244.337C287.918 244.337 313.938 252.538 325.625 296.621" stroke="white" stroke-miterlimit="10"/>
<path d="M322.298 279.535C334.241 263.217 336.374 251 335.265 234.939C333.815 213.752 320.762 196.494 321.103 220.245C321.359 237.929 313.596 235.537 316.156 246.131C317.776 252.965 322.212 255.87 318.459 262.875C316.497 266.549 322.298 279.535 322.298 279.535Z" fill="url(#paint2_linear_134_998)"/>
<path d="M326.905 217.938C326.905 217.938 335.691 249.462 322.298 279.535" stroke="white" stroke-miterlimit="10"/>
<path d="M322.042 301.149C324.089 300.551 340.127 260.483 354.374 242.97C358.895 237.417 366.573 229.728 368.621 222.637C371.521 212.214 353.862 222.295 351.474 224.089C344.905 229.13 338.507 235.024 331.682 240.15C326.649 243.995 322.042 248.352 320.165 254.674C319.056 258.518 319.568 262.106 319.397 266.036C319.227 270.821 317.35 275.007 315.473 279.278C312.573 286.198 322.042 301.149 322.042 301.149Z" fill="url(#paint3_linear_134_998)"/>
<path d="M354.886 234.256C338.08 254.332 322.98 273.554 321.957 301.149" stroke="white" stroke-miterlimit="10"/>
<path d="M321.019 301.149C329.123 272.444 343.199 257.835 358.896 253.051C374.593 248.266 397.711 256.981 376.299 264.328C359.066 270.223 363.417 278.937 353.009 283.721C346.27 286.796 341.578 283.123 337.313 293.546C335.18 298.928 321.019 301.149 321.019 301.149Z" fill="url(#paint4_linear_134_998)"/>
<path d="M367.427 256.382C367.427 256.382 340.384 259.8 321.019 301.064" stroke="white" stroke-miterlimit="10"/>
<path d="M336.545 328.744H314.62C314.108 328.744 313.596 328.317 313.511 327.804L307.369 294.827C307.198 294.144 307.795 293.46 308.478 293.46H342.772C343.455 293.46 344.052 294.144 343.881 294.827L337.739 327.804C337.568 328.317 337.142 328.744 336.545 328.744Z" fill="#D1D3D4"/>
<path d="M108.172 128.832C108.001 129.003 113.034 128.576 113.034 128.576L115.935 126.867C115.935 126.867 118.068 126.611 119.433 126.696C120.798 126.782 124.636 124.39 124.636 124.39L124.295 122.937C124.295 122.937 122.333 123.791 121.821 123.791C121.309 123.791 120.627 123.193 120.627 123.193C120.627 123.193 121.395 122.254 122.845 121.058C124.21 119.862 127.366 118.409 127.366 118.409L127.025 117.299C127.025 117.299 125.319 117.811 124.636 118.153C123.954 118.495 122.504 119.264 122.504 119.264L121.48 117.897L120.286 116.701C120.286 116.701 119.177 115.334 117.47 116.701C115.764 118.068 113.888 120.118 112.778 121.229C111.669 122.254 107.831 125.329 107.831 125.329L108.172 128.832Z" fill="#FEC4AD"/>
<path d="M64.323 141.305L83.091 136.521L109.025 124.304L113.12 129.259C113.12 129.259 93.4134 142.587 90.9394 145.064C88.4655 147.542 59.1191 160.613 59.1191 160.613C59.1191 160.613 59.7163 149.336 64.323 141.305Z" fill="#CFDEEE"/>
<path d="M33.0146 320.628V328.573H43.8489C43.8489 328.573 43.4224 326.437 38.3038 325.412L37.536 320.628H33.0146Z" fill="#133A50"/>
<path d="M54.0005 320.628V328.573H64.8347C64.8347 328.573 64.4082 326.437 59.2897 325.412L58.5219 320.628H54.0005Z" fill="#133A50"/>
<path d="M52.2942 116.871C53.4885 117.469 56.7302 119.776 57.5833 121.827C58.4364 123.962 59.6307 128.917 59.8014 131.139C59.972 134.129 59.1189 136.863 57.4127 138.486C55.7065 140.109 51.5264 138.998 49.3937 137.632C47.1756 136.265 46.3225 133.702 45.2988 131.31C44.1898 129.003 44.1045 126.184 44.1045 126.184C44.1045 126.184 42.1424 122.339 43.8486 120.203C50.0761 112.087 53.4032 115.334 52.2942 116.871Z" fill="#FEC4AD"/>
<path d="M55.9624 118.751C54.5122 120.203 52.3794 119.862 49.1377 120.801C47.0903 121.399 45.2135 121.827 45.4694 123.45C45.7253 125.073 46.749 124.902 47.1756 126.269C47.6021 127.636 46.1519 129.259 46.1519 129.259C46.1519 129.259 46.4931 131.395 46.1519 132.164C45.8106 132.933 46.2372 137.632 46.2372 137.632C46.2372 137.632 43.1661 134.385 42.7395 133.787C42.3983 133.189 40.0096 132.676 38.3888 130.968C36.7679 129.259 34.2939 120.63 39.4978 118.836C39.4978 118.836 40.6068 115.761 43.7632 114.479C46.3225 113.454 49.3936 113.198 51.9529 113.881C55.1947 114.821 55.9624 118.751 55.9624 118.751Z" fill="#613531"/>
<path d="M46.2374 129.857C45.8961 128.832 45.299 126.269 43.0809 126.867C40.7776 127.465 42.4838 130.712 43.5075 131.224C44.5312 131.737 46.0667 133.104 46.0667 133.104C46.0667 133.104 46.7492 131.31 46.2374 129.857Z" fill="#FEC4AD"/>
<path d="M37.2802 196.067C37.2802 196.067 32.8441 197.947 32.7588 218.194C32.7588 226.139 34.209 256.297 34.209 271.248C34.1237 294.314 32.1616 320.628 32.1616 320.628H39.9247C39.9247 320.628 47.8585 258.689 50.759 245.703C53.6595 232.718 59.4605 193.419 59.4605 193.419L37.2802 196.067Z" fill="#133A50"/>
<path d="M45.7257 130.113C45.7257 130.113 45.2138 134.214 44.7873 136.35C44.3607 138.486 43.5929 139.169 43.0811 139.682C42.5692 140.194 36.8535 144.124 36.8535 144.124C36.8535 144.124 42.4839 149.763 46.4934 149.763C50.503 149.763 58.778 145.15 58.778 145.15C58.778 145.15 54.4272 141.732 53.7447 140.024C53.0622 138.315 52.721 133.274 52.721 133.274L45.7257 130.113Z" fill="#FEC4AD"/>
<path d="M50.3325 206.746C50.3325 206.746 49.8206 242.97 50.0765 249.035C50.3325 255.101 52.0387 320.542 52.0387 320.542C52.0387 320.542 59.2899 320.713 59.2899 320.542C59.2899 320.371 66.1147 255.016 67.0531 240.065C67.9061 225.114 67.3943 209.053 68.5886 206.917C69.7829 204.867 65.4322 193.163 65.4322 193.163L55.1098 196.067L50.3325 206.746Z" fill="#133A50"/>
<path d="M40.4365 141.305L29.005 147.883C29.005 147.883 28.8344 164.201 29.005 168.643C29.0903 170.267 32.5027 178.126 33.3558 183.765C34.2089 189.404 31.9908 189.831 33.1852 193.248C34.0383 195.726 37.3653 196.153 37.3653 196.153C37.3653 196.153 47.9437 198.032 55.2802 196.153C62.6168 194.273 65.6026 193.248 65.6026 193.248C65.6026 193.248 69.015 160.015 69.015 155.572C68.9297 149.421 64.323 140.963 64.323 140.963L56.9011 142.159L53.6594 145.32L40.4365 141.305Z" fill="#CFDEEE"/>
<path d="M53.5742 145.15C53.5742 145.15 58.2662 171.804 56.9866 195.127" stroke="#AEBFDE" stroke-width="0.25" stroke-miterlimit="10"/>
<path d="M55.4509 148.823H52.2092L51.4414 146.602L52.0386 145.235H55.7069L56.304 146.602L55.4509 148.823Z" fill="#133A50"/>
<path d="M57.5835 179.066L53.8299 182.142L50.1616 179.066L52.209 148.823H55.4508L57.5835 179.066Z" fill="#133A50"/>
<path d="M41.8868 139.426L53.5741 145.15L50.3324 149.079L40.4365 141.305L41.8868 139.426Z" fill="#CFDEEE"/>
<path d="M53.5742 145.15L56.816 147.883V142.074L54.7685 141.305L53.5742 145.15Z" fill="#CFDEEE"/>
<path d="M28.9198 147.883C28.9198 147.883 11.8579 173.257 11.1755 174.367C10.493 175.478 3.49765 180.946 1.36492 184.534C1.36492 184.534 -1.02373 194.615 3.24172 196.153C3.24172 196.153 11.4314 188.037 16.2087 184.448C21.2419 180.689 23.1187 178.383 23.1187 178.383C23.1187 178.383 31.6497 170.096 35.062 164.884C42.3133 153.778 28.9198 147.883 28.9198 147.883Z" fill="#CFDEEE"/>
<path d="M46.2373 126.013C46.3226 126.184 46.8344 126.269 46.9197 126.269C47.1757 126.354 47.0904 126.354 48.1141 127.807C48.8819 128.832 50.0762 129.174 52.1236 128.319C53.7445 127.636 53.4032 126.184 53.4886 125.5C53.5739 124.817 53.6592 124.646 53.9151 124.646C54.171 124.56 54.3416 124.646 54.6829 125.244C55.0241 125.842 55.7919 127.38 57.4981 127.123C58.863 126.952 59.2896 126.184 59.3749 125.244C59.5455 123.45 59.5455 123.535 59.7161 123.364C59.8867 123.193 59.8014 122.51 59.6308 122.083C59.4602 121.656 58.5218 121.827 57.4981 122.083C56.4744 122.339 54.9388 122.681 54.4269 123.108C53.9151 123.535 54.0004 123.791 53.6592 123.877C53.4032 123.962 53.3179 123.706 52.6355 123.535C51.953 123.364 49.3084 124.048 48.2847 124.219C47.261 124.475 45.896 124.902 45.9813 125.329C46.0667 125.5 46.152 125.756 46.2373 126.013ZM54.9388 123.962C54.9388 123.45 55.3654 123.279 56.645 122.937C57.9246 122.595 58.4365 122.339 58.6924 122.595C58.9483 122.766 59.2043 123.535 59.119 124.646C59.0336 125.927 58.7777 126.525 57.754 126.782C56.645 127.038 55.8772 126.44 55.536 125.671C55.1094 124.817 54.9388 124.133 54.9388 123.962ZM47.6875 125.244C47.8582 124.988 49.5643 124.646 50.7587 124.39C52.0383 124.133 52.4648 124.048 52.7208 124.56C52.8061 124.731 52.9767 125.415 52.9767 126.269C52.9767 127.123 52.8914 127.892 50.9293 128.405C49.5643 128.747 48.7965 128.405 48.1994 127.294C47.6022 126.269 47.5169 125.5 47.6875 125.244Z" fill="#133A50"/>
<path d="M9.21364 329C9.7255 329 10.2374 328.573 10.2374 328.06L11.2611 321.311H6.99561L8.01931 328.06C8.27524 328.573 8.70179 329 9.21364 329Z" fill="#5415A4"/>
<path d="M5.97168 300.978H12.3699L9.98121 322.593H8.36033L5.97168 300.978Z" fill="#F7D8BA"/>
<path d="M12.3696 300.978L16.2085 308.923L11.09 322.593H9.98096L12.3696 300.978Z" fill="#F8ECD5"/>
<path d="M2.21777 308.923L5.97137 300.978L8.36003 322.593H7.25101L2.21777 308.923Z" fill="#DEB995"/>
<path d="M5.97154 188.464H12.3697V305.762C12.3697 307.556 10.9195 309.009 9.12798 309.009C7.33649 309.009 5.88623 307.556 5.88623 305.762V188.464H5.97154Z" fill="#5415A4"/>
<path d="M12.3701 188.464H16.209V308.923C14.0763 308.923 12.3701 307.215 12.3701 305.079V188.464Z" fill="#3FB9F9"/>
<path d="M2.21812 188.464H5.97172V305.079C5.97172 307.215 4.26554 308.923 2.13281 308.923L2.21812 188.464Z" fill="#008ED8"/>
<path d="M12.3699 178.895H5.97168V188.464H12.3699V178.895Z" fill="#FFC755"/>
<path d="M16.209 178.895H12.3701V188.464H16.209V178.895Z" fill="#FDD952"/>
<path d="M6.05668 178.895H2.21777V188.464H6.05668V178.895Z" fill="#DEAD4A"/>
<path d="M12.3699 163.518H5.97168V178.895H12.3699V163.518Z" fill="#DE7CAC"/>
<path d="M16.209 178.895V167.362C16.209 165.226 14.5028 163.518 12.3701 163.518V178.895H16.209Z" fill="#E3A4BC"/>
<path d="M5.97172 178.895V163.518C3.83899 163.518 2.13281 165.226 2.13281 167.362V178.895H5.97172Z" fill="#C13A76"/>
<path d="M1.36482 185.474C2.21791 184.876 4.52126 186.413 5.54496 187.268C6.56867 188.037 7.08053 188.293 6.56867 188.891C6.05682 189.489 5.11842 189.062 4.52126 188.891C3.83878 188.72 3.32693 189.233 3.32693 189.233C3.32693 189.233 3.41224 190.514 3.92409 191.283C4.43595 192.052 5.80089 192.821 5.8862 193.419C5.97151 194.102 5.20373 194.359 5.20373 194.359C5.20373 194.359 6.05682 195.042 6.14213 195.64C6.22744 196.238 5.71558 196.494 5.45966 196.409C5.20373 196.324 4.77718 196.238 4.77718 196.238C4.77718 196.238 4.60656 197.007 4.18002 196.922C3.75347 196.836 3.75347 196.836 3.75347 196.836C3.75347 196.836 3.15631 197.092 2.81507 196.922C2.1326 196.58 1.53544 195.469 1.10889 194.615C0.511727 193.59 -0.0854372 191.796 -0.000128095 190.77C0.085181 189.745 -0.170746 186.499 1.36482 185.474Z" fill="#FEC4AD"/>
</g>
<defs>
<linearGradient id="paint0_linear_134_998" x1="336.706" y1="281.282" x2="285.953" y2="209.619" gradientUnits="userSpaceOnUse">
<stop stop-color="#00C3B7"/>
<stop offset="1" stop-color="#A4F4C3"/>
</linearGradient>
<linearGradient id="paint1_linear_134_998" x1="320.582" y1="294.958" x2="281.663" y2="235.343" gradientUnits="userSpaceOnUse">
<stop stop-color="#0082A1"/>
<stop offset="1" stop-color="#75D1B3"/>
</linearGradient>
<linearGradient id="paint2_linear_134_998" x1="323.017" y1="276.044" x2="351.446" y2="224.218" gradientUnits="userSpaceOnUse">
<stop stop-color="#00A59B"/>
<stop offset="1" stop-color="#90D6AB"/>
</linearGradient>
<linearGradient id="paint3_linear_134_998" x1="312.991" y1="288.514" x2="363.744" y2="216.851" gradientUnits="userSpaceOnUse">
<stop stop-color="#00C3B7"/>
<stop offset="1" stop-color="#A4F4C3"/>
</linearGradient>
<linearGradient id="paint4_linear_134_998" x1="326.26" y1="300.405" x2="375.202" y2="248.725" gradientUnits="userSpaceOnUse">
<stop stop-color="#00A59B"/>
<stop offset="1" stop-color="#90D6AB"/>
</linearGradient>
<clipPath id="clip0_134_998">
<rect width="385" height="329" fill="white"/>
</clipPath>
</defs>
</svg>
